<svg xmlns="http://www.w3.org/2000/svg" viewBox="0 0 1819 1015.33"><defs><style>.cls-1,.cls-2,.cls-3{stroke:#000;}.cls-1,.cls-2{stroke-linecap:round;stroke-linejoin:round;}.cls-1{stroke-width:2.51px;}.cls-2{stroke-width:1.24px;}.cls-3{stroke-miterlimit:15.12;stroke-width:3px;fill-rule:evenodd;}.cls-4{fill:#2f2fff;}</style></defs><g id="Layer_2" data-name="Layer 2"><g id="Layer_1-2" data-name="Layer 1"><path id="path858" class="cls-1" d="M509.91,324.81a20,20,0,0,1-20,20h0a20,20,0,0,1-20-20h0a20,20,0,0,1,40,0Z"/><path id="circle860" class="cls-2" d="M508.13,518.4a9.9,9.9,0,0,1-9.9,9.9h0a9.9,9.9,0,0,1-9.9-9.9h0a9.9,9.9,0,0,1,9.9-9.9h0a9.9,9.9,0,0,1,9.9,9.9Z"/><path id="circle860-3" class="cls-2" d="M604.29,439.55a9.9,9.9,0,0,1-9.9,9.9h0a9.9,9.9,0,0,1-9.9-9.9h0a9.9,9.9,0,0,1,9.9-9.9h0a9.9,9.9,0,0,1,9.9,9.9Z"/><path id="path858-0" class="cls-1" d="M372,659.76a20,20,0,0,1-20,20h0a20,20,0,1,1,20-20Z"/><path id="path858-6" class="cls-1" d="M804.3,841.59a20,20,0,1,1-20-20,20,20,0,0,1,20,20Z"/><path id="path858-8" class="cls-1" d="M1186.13,706.23a20,20,0,1,1-20-20A20,20,0,0,1,1186.13,706.23Z"/><path id="path858-5" class="cls-1" d="M1307.35,227.42a20,20,0,1,1-20-20A20,20,0,0,1,1307.35,227.42Z"/><path id="path858-69" class="cls-1" d="M852.78,116.3a20,20,0,1,1-40,0h0a20,20,0,0,1,20-20h0A20,20,0,0,1,852.78,116.3Z"/><path id="path858-2" class="cls-1" d="M998.25,308.23a20,20,0,1,1-20-20A20,20,0,0,1,998.25,308.23Z"/><path id="path858-51" class="cls-1" d="M1485.14,574.91a20,20,0,1,1-20-20A20,20,0,0,1,1485.14,574.91Z"/><path id="circle860-6" class="cls-2" d="M176,742.6a9.9,9.9,0,0,1-9.9,9.9h0a9.9,9.9,0,0,1-9.89-9.9h0a9.89,9.89,0,0,1,9.89-9.9h0a9.9,9.9,0,0,1,9.9,9.9Z"/><path id="circle860-0" class="cls-2" d="M220.43,520.36a9.9,9.9,0,0,1-9.9,9.9h0a9.9,9.9,0,0,1-9.9-9.9h0a9.89,9.89,0,0,1,9.9-9.89h0a9.89,9.89,0,0,1,9.9,9.89Z"/><path id="circle860-4" class="cls-2" d="M289.12,886a9.9,9.9,0,0,1-9.9,9.9h0a9.9,9.9,0,0,1-9.9-9.9h0a9.9,9.9,0,0,1,9.9-9.9h0a9.9,9.9,0,0,1,9.9,9.9Z"/><path id="circle860-31" class="cls-2" d="M103.25,944.63a9.9,9.9,0,0,1-9.9,9.9h0a9.91,9.91,0,0,1-9.9-9.9h0a9.9,9.9,0,0,1,19.8,0Z"/><path id="path858-55" class="cls-1" d="M279,166.81a20,20,0,1,1-20-20,20,20,0,0,1,20,20Z"/><path id="circle860-33" class="cls-2" d="M169.92,320.35a9.9,9.9,0,0,1-9.9,9.9h0a9.9,9.9,0,0,1-9.9-9.9h0a9.9,9.9,0,0,1,9.9-9.89h0a9.89,9.89,0,0,1,9.9,9.89Z"/><path id="circle860-65" class="cls-2" d="M485.09,67.82a9.89,9.89,0,0,1-9.9,9.89h0a9.89,9.89,0,0,1-9.9-9.89h0a9.9,9.9,0,0,1,9.9-9.9h0a9.9,9.9,0,0,1,9.9,9.9Z"/><path id="circle860-49" class="cls-2" d="M640.65,197.11a9.9,9.9,0,0,1-9.9,9.9h0a9.89,9.89,0,0,1-9.89-9.9h0a9.89,9.89,0,0,1,9.89-9.89h0a9.89,9.89,0,0,1,9.9,9.89Z"/><path id="circle860-38" class="cls-2" d="M586.1,645.62a9.89,9.89,0,0,1-9.89,9.9h0a9.9,9.9,0,0,1-9.9-9.9h0a9.9,9.9,0,0,1,9.9-9.9h0a9.9,9.9,0,0,1,9.89,9.9Z"/><path id="circle860-5" class="cls-2" d="M555.8,924.42a9.9,9.9,0,1,1-9.9-9.89A9.9,9.9,0,0,1,555.8,924.42Z"/><path id="circle860-8" class="cls-2" d="M1050.77,902.2a9.9,9.9,0,1,1-9.89-9.9A9.89,9.89,0,0,1,1050.77,902.2Z"/><path id="circle860-60" class="cls-2" d="M909.35,714.31a9.9,9.9,0,0,1-9.9,9.9h0a9.89,9.89,0,0,1-9.89-9.9h0a9.9,9.9,0,0,1,9.89-9.9h0a9.9,9.9,0,0,1,9.9,9.9Z"/><path id="circle860-7" class="cls-2" d="M1394.23,880a9.9,9.9,0,0,1-19.8,0h0a9.9,9.9,0,0,1,9.9-9.9h0A9.9,9.9,0,0,1,1394.23,880Z"/><path id="circle860-9" class="cls-2" d="M1252.81,484a9.9,9.9,0,1,1-9.9-9.9A9.91,9.91,0,0,1,1252.81,484Z"/><path id="circle860-57" class="cls-2" d="M1555.85,306.21a9.9,9.9,0,1,1-9.9-9.9A9.9,9.9,0,0,1,1555.85,306.21Z"/><path id="circle860-63" class="cls-2" d="M1458.88,86a9.9,9.9,0,1,1-9.9-9.9A9.91,9.91,0,0,1,1458.88,86Z"/><path id="circle860-32" class="cls-2" d="M1129.57,114.28a9.9,9.9,0,1,1-9.9-9.9A9.9,9.9,0,0,1,1129.57,114.28Z"/><path id="path1059" class="cls-3" d="M909.91,507.66,594.39,439.55"/><path id="path1059-4" class="cls-3" d="M909.91,507.66l-333.7,138"/><path id="path1059-4-8" class="cls-3" d="M784.3,841.59l-208.09-196"/><path id="path1059-4-8-5" class="cls-3" d="M545.9,924.42l30.31-278.8"/><path id="path1059-4-8-5-3" class="cls-3" d="M545.9,924.42,279.22,886"/><path id="path1059-4-8-5-3-0" class="cls-3" d="M352,659.76,279.22,886"/><path id="path1059-4-8-5-3-0-9" class="cls-3" d="M166.08,742.6,279.22,886"/><path id="path1059-4-8-5-3-0-9-6" class="cls-3" d="M93.35,944.63,279.22,886"/><path id="path1059-4-8-5-3-0-3" class="cls-3" d="M352,659.76,210.53,520.36"/><path id="path1059-4-8-5-3-0-3-4" class="cls-3" d="M352,659.76,498.23,518.4"/><path id="path1059-4-8-5-3-0-3-4-1" class="cls-3" d="M489.91,324.81l8.32,193.59"/><path id="path1059-4-8-5-3-0-3-4-8" class="cls-3" d="M352,659.76,160,320.35"/><path id="path1059-4-8-5-3-0-90" class="cls-3" d="M352,659.76l194,264.66"/><path id="path1059-4-8-5-3-0-90-4" class="cls-3" d="M352,659.76l224.26-14.14"/><path id="path1059-4-8-5-3-0-3-4-1-4" class="cls-3" d="M259,166.81,498.23,518.4"/><path id="path1059-4-8-5-3-0-3-4-1-4-9" class="cls-3" d="M259,166.81l216.17-99"/><path id="path1059-4-8-5-3-0-3-4-1-4-9-9" class="cls-3" d="M630.75,197.11,475.19,67.82"/><path id="path1059-4-8-5-3-0-3-4-1-4-9-9-4" class="cls-3" d="M630.75,197.11l202-80.81"/><path id="path1059-4-8-5-3-0-3-4-1-4-9-9-4-4" class="cls-3" d="M978.25,308.23,832.78,116.3"/><path id="path1059-4-8-5-3-0-3-4-1-4-9-9-4-4-8" class="cls-3" d="M978.25,308.23l309.1-80.81"/><path id="path1059-4-8-5-3-0-3-4-1-4-9-9-4-4-8-1" class="cls-3" d="M1119.67,114.28l167.68,113.14"/><path id="path1059-4-8-5-3-0-3-4-1-4-9-9-4-4-8-1-6" class="cls-3" d="M1449,86,1287.35,227.42"/><path id="path1059-4-8-5-3-0-3-4-1-4-9-9-4-4-8-1-6-5" class="cls-3" d="M1546,306.21l-258.6-78.79"/><path id="path1059-4-8-5-3-0-3-4-1-4-9-9-4-4-8-1-6-5-0" class="cls-3" d="M1242.91,484l44.44-256.58"/><path id="path1059-4-8-5-3-0-3-4-1-4-9-9-4-4-8-1-6-5-0-1" class="cls-3" d="M1242.91,484l222.23,90.91"/><path id="path1059-4-8-5-3-0-3-4-1-4-9-9-4-4-8-1-6-5-0-1-5" class="cls-3" d="M1166.13,706.23l299-131.32"/><path id="path1059-4-8-5-3-0-3-4-1-4-9-9-4-4-8-1-6-5-0-1-5-8" class="cls-3" d="M1384.33,880l80.81-305.07"/><path id="path1059-4-8-5-3-0-3-4-1-4-9-9-4-4-8-1-6-5-0-1-5-6" class="cls-3" d="M1166.13,706.23l-266.68,8.08"/><path id="path1059-4-8-5-3-0-3-4-1-4-9-9-4-4-8-1-6-5-0-1-5-6-0" class="cls-3" d="M1040.88,902.2,899.45,714.31"/><path id="path1059-4-8-5-3-0-3-4-1-4-9-9-4-4-8-1-6-5-0-1-5-6-0-1" class="cls-3" d="M784.3,841.59,899.45,714.31"/><path id="circle860-33-0" class="cls-2" d="M83.05,110.24a9.9,9.9,0,0,1-9.9,9.9h0a9.9,9.9,0,0,1-9.9-9.9h0a9.9,9.9,0,0,1,9.9-9.9h0a9.9,9.9,0,0,1,9.9,9.9Z"/><path id="circle860-33-7" class="cls-2" d="M218.41,17.31a9.9,9.9,0,0,1-9.9,9.9h0a9.9,9.9,0,0,1-9.9-9.9h0a9.9,9.9,0,0,1,9.9-9.9h0a9.9,9.9,0,0,1,9.9,9.9Z"/><path id="circle860-33-1" class="cls-2" d="M83.05,486a9.9,9.9,0,0,1-9.9,9.9h0a9.9,9.9,0,0,1-9.9-9.9h0a9.9,9.9,0,0,1,9.9-9.9h0a9.9,9.9,0,0,1,9.9,9.9Z"/><path id="circle860-33-70" class="cls-2" d="M20.42,334.5a9.89,9.89,0,0,1-9.9,9.89h0a9.89,9.89,0,0,1-9.9-9.89h0a9.9,9.9,0,0,1,9.9-9.9h0a9.9,9.9,0,0,1,9.9,9.9Z"/><path id="circle860-33-3" class="cls-2" d="M139.62,613.3a9.9,9.9,0,0,1-9.9,9.9h0a9.9,9.9,0,0,1-9.9-9.9h0a9.9,9.9,0,0,1,9.9-9.9h0a9.9,9.9,0,0,1,9.9,9.9Z"/><path id="circle860-33-9" class="cls-2" d="M1657,473.38a9.9,9.9,0,1,1-19.79,0h0a9.89,9.89,0,0,1,9.89-9.9h0A9.9,9.9,0,0,1,1657,473.38Z"/><path id="circle860-33-8" class="cls-2" d="M1677,682a9.9,9.9,0,1,1-9.9-9.9A9.9,9.9,0,0,1,1677,682Z"/><path id="circle860-33-6" class="cls-2" d="M1159.81,944.81a9.9,9.9,0,1,1-9.9-9.9h0a9.9,9.9,0,0,1,9.9,9.9Z"/><path id="circle860-33-5" class="cls-2" d="M1305.52,964.81a9.9,9.9,0,1,1-9.89-9.9A9.89,9.89,0,0,1,1305.52,964.81Z"/><path id="path1059-4-8-5-3-0-3-4-1-4-1" class="cls-3" d="M259,166.81,208.51,17.31"/><path id="path1059-4-8-5-3-0-3-4-1-4-1-4" class="cls-3" d="M259,166.81,73.15,110.24"/><path id="path1059-4-8-5-3-0-3-4-8-5" class="cls-3" d="M73.15,486,160,320.35"/><path id="path1059-4-8-5-3-0-3-4-8-5-1" class="cls-3" d="M10.52,334.5,160,320.35"/><path id="path1059-4-8-5-3-0-3-0" class="cls-3" d="M352,659.76,129.72,613.3"/><path id="path1059-4-8-5-3-0-3-4-1-4-9-9-4-4-8-1-6-5-0-9" class="cls-3" d="M1242.91,484,978.25,308.23"/><path id="path1059-4-8-5-3-0-3-4-1-4-9-9-4-4-8-1-6-5-0-9-0" class="cls-3" d="M1242.91,484l-76.78,222.23"/><path id="path1059-4-8-5-3-0-3-4-1-4-9-9-4-4-8-1-6-5-0-9-0-0" class="cls-3" d="M1149.91,944.81l16.22-238.58"/><path id="path1059-4-8-5-3-0-3-4-1-4-9-9-4-4-8-1-6-5-0-9-0-0-5" class="cls-3" d="M1295.63,964.81,1166.14,706.23"/><path id="path1059-4-8-5-3-0-3-4-1-4-9-9-4-4-8-1-6-5-0-1-6" class="cls-3" d="M1647.05,473.38,1465.14,574.91"/><path id="path1059-4-8-5-3-0-3-4-1-4-9-9-4-4-8-1-6-5-0-1-6-0" class="cls-3" d="M1667.05,682l-201.91-107"/><path id="path1059-4-8-5-3-0-3-4-1-6" class="cls-3" d="M489.91,324.81,594.39,439.55"/><path id="path1059-4-8-5-3-0-3-4-1-6-4" class="cls-3" d="M489.91,324.81l140.84-127.7"/><path id="path1059-4-8-5-3-0-3-4-1-6-4-5" class="cls-3" d="M489.91,324.81,259,166.81"/><path id="path858-5-7" class="cls-1" d="M1677.07,176.91a20,20,0,1,1-20-20A20,20,0,0,1,1677.07,176.91Z"/><path id="path858-5-72" class="cls-1" d="M1630.6,853.71a20,20,0,1,1-20-20A20,20,0,0,1,1630.6,853.71Z"/><path id="path1059-4-8-5-3-0-3-4-1-6-7" class="cls-3" d="M832.78,116.3,594.39,439.55"/><path id="path1059-4-8-5-3-0-3-4-1-6-7-3" class="cls-3" d="M630.75,197.11,594.39,439.55"/><path id="path1059-4-8-5-3-0-3-4-1-6-7-3-2" class="cls-3" d="M978.25,308.23,594.39,439.55"/><path id="path1059-4-8-5-3-0-3-4-1-4-9-9-4-4-8-1-6-5-0-1-5-6-8" class="cls-3" d="M909.91,507.66,899.45,714.31"/><path id="path1059-4-8-5-3-0-3-4-1-4-9-9-4-4-8-1-6-5-0-9-0-5" class="cls-3" d="M1242.91,484l-333,23.66"/><path id="path1059-4-8-5-3-0-3-4-1-6-7-3-2-9" class="cls-3" d="M978.25,308.23,909.91,507.66"/><path id="circle860-57-1" class="cls-2" d="M1677,27.66a9.9,9.9,0,1,1-9.9-9.9A9.9,9.9,0,0,1,1677,27.66Z"/><path id="circle860-57-3" class="cls-2" d="M1818.38,152a9.9,9.9,0,1,1-9.9-9.9A9.9,9.9,0,0,1,1818.38,152Z"/><path id="circle860-57-14" class="cls-2" d="M1784.1,794.81a9.9,9.9,0,1,1-9.9-9.9A9.9,9.9,0,0,1,1784.1,794.81Z"/><path id="circle860-57-2" class="cls-2" d="M1542.67,1004.81a9.9,9.9,0,1,1-9.9-9.9h0a9.9,9.9,0,0,1,9.9,9.9Z"/><path id="circle860-57-9" class="cls-2" d="M1732.67,987.66a9.9,9.9,0,1,1-9.9-9.9A9.9,9.9,0,0,1,1732.67,987.66Z"/><path id="circle860-57-0" class="cls-2" d="M1455.52,413.38a9.9,9.9,0,1,1-9.89-9.9A9.9,9.9,0,0,1,1455.52,413.38Z"/><path id="circle860-57-91" class="cls-2" d="M1739.81,369.09a9.9,9.9,0,1,1-9.9-9.9A9.9,9.9,0,0,1,1739.81,369.09Z"/><path id="path1059-4-8-5-3-0-3-4-1-4-9-9-4-4-8-1-6-5-7" class="cls-3" d="M1546,306.21l111.12-129.3"/><path id="path1059-4-8-5-3-0-3-4-1-4-9-9-4-4-8-1-6-5-7-4" class="cls-3" d="M1667.05,27.66l-10,149.25"/><path id="path1059-4-8-5-3-0-3-4-1-4-9-9-4-4-8-1-6-5-7-4-2" class="cls-3" d="M1808.48,152l-151.41,25"/><path id="path1059-4-8-5-3-0-3-4-1-4-9-9-4-4-8-1-6-5-7-4-2-7" class="cls-3" d="M1729.91,369.09l-72.84-192.18"/><path id="path1059-4-8-5-3-0-3-4-1-4-9-9-4-4-8-1-6-5-7-5" class="cls-3" d="M1546,306.21,1445.63,413.38"/><path id="path1059-4-8-5-3-0-3-4-1-4-9-9-4-4-8-1-6-5-7-5-5" class="cls-3" d="M1465.14,574.91l-19.51-161.53"/><path id="path1059-4-8-5-3-0-3-4-1-4-9-9-4-4-8-1-6-5-7-5-5-7" class="cls-3" d="M1242.91,484l202.72-70.62"/><path id="path1059-4-8-5-3-0-3-4-1-4-9-9-4-4-8-1-6-5-7-5-5-7-1" class="cls-3" d="M1287.35,227.42l158.28,186"/><path id="path1059-4-8-5-3-0-3-4-1-4-9-9-4-4-8-1-6-5-0-1-5-8-3" class="cls-3" d="M1384.33,880l226.27-26.27"/><path id="path1059-4-8-5-3-0-3-4-1-4-9-9-4-4-8-1-6-5-0-1-5-8-3-7" class="cls-3" d="M1384.33,880l-218.2-173.75"/><path id="path1059-4-8-5-3-0-3-4-1-4-9-9-4-4-8-1-6-5-0-1-5-8-3-78" class="cls-3" d="M1667.05,682,1610.6,853.71"/><path id="path1059-4-8-5-3-0-3-4-1-4-9-9-4-4-8-1-6-5-0-1-5-8-3-78-5" class="cls-3" d="M1532.77,1004.81l77.83-151.1"/><path id="path1059-4-8-5-3-0-3-4-1-4-9-9-4-4-8-1-6-5-0-1-5-8-3-78-5-6" class="cls-3" d="M1722.77,987.66,1610.6,853.71"/><path id="path1059-4-8-5-3-0-3-4-1-4-9-9-4-4-8-1-6-5-0-1-5-8-3-78-5-6-5" class="cls-3" d="M1774.2,794.81l-163.6,58.9"/><path id="circle860-5-7" class="cls-2" d="M716.41,971.9a9.9,9.9,0,1,1-9.89-9.9A9.89,9.89,0,0,1,716.41,971.9Z"/><path id="circle860-5-4" class="cls-2" d="M927.54,985a9.9,9.9,0,1,1-9.9-9.89A9.9,9.9,0,0,1,927.54,985Z"/><path id="circle860-5-1" class="cls-2" d="M705.52,10.52a9.89,9.89,0,0,1-9.89,9.9h0a9.9,9.9,0,0,1-9.9-9.9h0a9.9,9.9,0,0,1,9.9-9.9h0a9.89,9.89,0,0,1,9.89,9.9Z"/><path id="circle860-5-2" class="cls-2" d="M985.07,17.56a9.9,9.9,0,1,1-9.9-9.9A9.9,9.9,0,0,1,985.07,17.56Z"/><path id="path1059-4-8-5-3-0-3-4-1-4-9-9-4-46" class="cls-3" d="M695.63,10.52,832.78,116.3"/><path id="path1059-4-8-5-3-0-3-4-1-4-9-9-4-46-1" class="cls-3" d="M975.17,17.56,832.78,116.3"/><path id="path1059-4-8-8" class="cls-3" d="M784.3,841.59,706.52,971.9"/><path id="path1059-4-8-8-1" class="cls-3" d="M784.3,841.59,917.64,985"/><path id="path1059-4-8-5-3-0-3-4-1-4-9-9-4-4-8-1-6-5-0-1-5-6-0-1-5" class="cls-3" d="M576.21,645.62l323.24,68.69"/><path id="path1059-4-2" class="cls-3" d="M498.23,518.4l78,127.22"/><path id="path1059-4-2-5" class="cls-3" d="M594.39,439.55,576.21,645.62"/><g id="Down_Rectangles" data-name="Down Rectangles"><polygon class="cls-4" points="570.13 627.18 570.13 708.29 470.96 568.62 570.13 627.18"/><polygon class="cls-4" points="570.17 627.2 669.38 568.62 570.17 708.34 570.13 708.29 570.13 627.18 570.17 627.2"/></g><g id="Upper_Rectangles" data-name="Upper Rectangles"><polygon class="cls-4" points="570.13 385.22 570.13 504.72 470.96 549.8 570.13 385.22"/><polygon class="cls-4" points="570.13 385.22 669.33 549.8 570.13 504.72 570.13 385.22"/><polygon class="cls-4" points="570.13 504.72 570.13 608.45 470.96 549.8 570.13 504.72"/><polygon class="cls-4" points="669.33 549.8 570.13 608.45 570.13 504.72 669.33 549.8"/></g><path id="Icon" class="cls-4" d="M1215.32,603.23c-.54,3.28-2.6,8.48-9.91,8.33.33.31-18.79-.46-18.79-.46l-5.88,30.74,33.63.8c6.25.17,12.41.42,18.45.6l-1,42.93,25.8.61,1-42.48c7.08.32,13.94.53,20.65.69l-1,42.28,25.83.6,1-42.84c43.5-1.44,74.16-11.66,78.91-52.36,3.84-32.76-11.26-47.79-35.78-54.32,15.17-7.28,24.84-20.49,23.18-42.93-2.2-30.67-28.37-41.56-61.66-45.29l1-42.45-25.84-.61-1,41.33c-6.79-.16-13.74-.18-20.62-.22l1-41.6-25.82-.61-1,42.43c-5.61,0-11.11,0-16.45-.16v-.14l-35.63-.87-.65,27.6s19.09.08,18.75.43c10.47.25,13.74,6.41,14.6,11.67Zm117.78-16.88c-.75,32.08-55.6,27.13-73.11,26.72l1.37-56.88C1278.87,556.62,1333.9,552.9,1333.1,586.35ZM1323,505.82c-.71,29.19-46.44,24.69-61,24.33l1.23-51.58C1277.8,478.92,1323.73,475.37,1323,505.82Z"/><path id="_149931032" data-name=" 149931032" class="cls-4" d="M927.89,364.22c-96.24,0-174.42,78.16-174.3,174.32a174.63,174.63,0,0,0,8.85,55.06h52.15V447l113.3,113.29L1041.19,447V593.6h52.16a174.63,174.63,0,0,0,8.85-55.06c.17-96.26-78-174.3-174.31-174.3Z"/><path id="_149931160" data-name=" 149931160" class="cls-4" d="M901.84,586.29l-49.45-49.45v92.28H778.92a174.34,174.34,0,0,0,297.95,0h-73.49V536.84l-49.45,49.45-26,26.05-26-26.05Z"/></g></g></svg>