<svg xmlns="http://www.w3.org/2000/svg" viewBox="0 0 77.5 77.5"><defs><style>.cls-1{fill:#2f2fff;fill-rule:evenodd;}</style></defs><g id="Layer_2" data-name="Layer 2"><g id="Layer_1-2" data-name="Layer 1"><path class="cls-1" d="M53.24,35.31,69.85,25.18l7.43,14.65c1.8,8-8,10.94-16,10.46l-8.09-15Z"/><path class="cls-1" d="M49.47,45.78,40.74,61.53l8.73,16,.22-6.39h8a9,9,0,0,0,8.08-4.51L76,47.43c-3.38,3.41-7.72,4.3-12.72,4.3H49.8l-.33-5.95Z"/><path class="cls-1" d="M30,26.36,13.23,16.45,22.16,2.69c6-5.49,13.27,1.88,16.7,9.18L30,26.36Z"/><path class="cls-1" d="M40.75,24.65l17.71.16L67.89,9.25l-5.57,2.91L58.45,5a9,9,0,0,0-7.79-5L29.29.16C33.85,1.52,36.71,5,39.14,9.44l6.54,12-4.93,3.18Z"/><path class="cls-1" d="M.43,25.54l5.18,4.05L.74,38.93c-2.44,4.31,1.75,8.51,4.42,10s6.7,1.61,10.52,1.56l6.86-11.21,5.18,2.8-9-16.67-18.3.16Z"/><path class="cls-1" d="M1.19,47.19,12.32,67.75c2.24,2.86,6.46,3.53,10.83,3.43H34.89V51.71l-22.26-.16A13.82,13.82,0,0,1,1.19,47.19Z"/></g></g></svg>