<svg xmlns="http://www.w3.org/2000/svg" viewBox="0 0 499.02 168"><defs><style>.cls-1{stroke:#000;stroke-miterlimit:10;stroke-width:3px;}.cls-2{fill:#fff;}</style></defs><g id="Layer_2" data-name="Layer 2"><g id="Layer_1-2" data-name="Layer 1"><path class="cls-1" d="M34.65,1.5H166.5a0,0,0,0,1,0,0v165a0,0,0,0,1,0,0H35.42A33.92,33.92,0,0,1,1.5,132.58V34.65A33.15,33.15,0,0,1,34.65,1.5Z"/><path class="cls-2" d="M34.44,67V62.35H67.17V67H53.45V106H48.16V67Z"/><path class="cls-2" d="M79.87,106.76a13.32,13.32,0,0,1-5.65-1.18A9.28,9.28,0,0,1,68.7,96.7a8.45,8.45,0,0,1,1.11-4.57,7.93,7.93,0,0,1,3-2.76,15.75,15.75,0,0,1,4.1-1.5c1.5-.33,3-.6,4.53-.8,2-.26,3.61-.45,4.85-.59A7.32,7.32,0,0,0,89,85.79a1.79,1.79,0,0,0,.86-1.7v-.17A6.65,6.65,0,0,0,88.12,79a6.94,6.94,0,0,0-5.18-1.75,9,9,0,0,0-5.65,1.58,9.43,9.43,0,0,0-2.88,3.36l-4.77-1.7a11.5,11.5,0,0,1,3.42-4.66,13,13,0,0,1,4.69-2.34,19.48,19.48,0,0,1,5-.67,20.46,20.46,0,0,1,3.63.37,12,12,0,0,1,4,1.52,8.91,8.91,0,0,1,3.21,3.48,12.91,12.91,0,0,1,1.28,6.22V106h-5v-4.43h-.26a8.94,8.94,0,0,1-1.7,2.28,9.84,9.84,0,0,1-3.18,2.07A12.35,12.35,0,0,1,79.87,106.76Zm.76-4.52a10,10,0,0,0,5-1.17,8,8,0,0,0,3.11-3,7.68,7.68,0,0,0,1.06-3.9v-4.6a2.84,2.84,0,0,1-1.4.69,20.13,20.13,0,0,1-2.47.54c-.93.15-1.83.27-2.7.38l-2.12.27a19.23,19.23,0,0,0-3.66.82,6.27,6.27,0,0,0-2.73,1.68,4.35,4.35,0,0,0-1,3,4.48,4.48,0,0,0,2,4A8.57,8.57,0,0,0,80.63,102.24Z"/><path class="cls-2" d="M104.75,106V62.35h5V78.46h.43c.37-.57.88-1.29,1.54-2.18a9.14,9.14,0,0,1,2.86-2.39,10.33,10.33,0,0,1,5.06-1A13.09,13.09,0,0,1,127,74.9a13.83,13.83,0,0,1,4.92,5.86,21,21,0,0,1,1.77,8.95,21.13,21.13,0,0,1-1.77,9,14,14,0,0,1-4.9,5.89,12.82,12.82,0,0,1-7.23,2.07,10.45,10.45,0,0,1-5-1,9.28,9.28,0,0,1-2.91-2.41c-.69-.9-1.21-1.65-1.58-2.25h-.6v5Zm5-16.36a18.21,18.21,0,0,0,1.08,6.53,9.88,9.88,0,0,0,3.18,4.41,8.17,8.17,0,0,0,5.11,1.59,8.26,8.26,0,0,0,5.28-1.68A10.21,10.21,0,0,0,127.54,96a17.76,17.76,0,0,0,1.08-6.34,17.29,17.29,0,0,0-1.06-6.23A9.8,9.8,0,0,0,124.39,79a8.53,8.53,0,0,0-5.32-1.63,8.42,8.42,0,0,0-5.15,1.55,9.35,9.35,0,0,0-3.16,4.3A17.8,17.8,0,0,0,109.7,89.63Z"/><path d="M220.2,74.47v4.26H202.56V74.47ZM207.84,107.2V70a7.86,7.86,0,0,1,1.33-4.68,8.21,8.21,0,0,1,3.43-2.82,10.89,10.89,0,0,1,4.45-.93,12.58,12.58,0,0,1,3,.29,11.38,11.38,0,0,1,1.75.56l-1.45,4.34-1.05-.32a7,7,0,0,0-1.76-.19A4.53,4.53,0,0,0,214,67.46a5.48,5.48,0,0,0-1.1,3.69V107.2Z"/><path d="M239.21,107.88a13.84,13.84,0,0,1-13-8A19.94,19.94,0,0,1,224.38,91a20.1,20.1,0,0,1,1.86-8.92,14.34,14.34,0,0,1,25.93,0A20,20,0,0,1,254,91a19.81,19.81,0,0,1-1.87,8.87,13.84,13.84,0,0,1-13,8Zm0-4.52a8.64,8.64,0,0,0,5.54-1.72A10.23,10.23,0,0,0,248,97.1a18.44,18.44,0,0,0,0-12.21,10.3,10.3,0,0,0-3.22-4.58,9.64,9.64,0,0,0-11.08,0,10.3,10.3,0,0,0-3.22,4.58,18.44,18.44,0,0,0,0,12.21,10.23,10.23,0,0,0,3.22,4.54A8.63,8.63,0,0,0,239.21,103.36Z"/><path d="M261.71,107.2V74.47h4.86v4.94h.34a7.79,7.79,0,0,1,3.24-3.94A9.5,9.5,0,0,1,275.43,74l1.38,0c.56,0,1,0,1.26.06v5.12c-.17,0-.56-.11-1.16-.21a12.93,12.93,0,0,0-1.91-.13,8.94,8.94,0,0,0-4.25,1,7.63,7.63,0,0,0-2.94,2.72,7.44,7.44,0,0,0-1.07,4V107.2Z"/><path d="M336.71,77.2h-5.29a11,11,0,0,0-1.63-4A11.28,11.28,0,0,0,327,70.28a12.26,12.26,0,0,0-3.65-1.78,14.87,14.87,0,0,0-4.18-.59,13.23,13.23,0,0,0-7.17,2,13.85,13.85,0,0,0-5.09,5.9A21.83,21.83,0,0,0,305,85.38,21.83,21.83,0,0,0,306.89,95a13.91,13.91,0,0,0,5.09,5.9,13.31,13.31,0,0,0,7.17,2,14.52,14.52,0,0,0,4.18-.6,12,12,0,0,0,3.65-1.78,11,11,0,0,0,4.44-6.91h5.29a17.68,17.68,0,0,1-2.17,6,16.29,16.29,0,0,1-3.93,4.48,16.79,16.79,0,0,1-5.25,2.8,19.7,19.7,0,0,1-6.21,1,18.37,18.37,0,0,1-9.93-2.72,18.72,18.72,0,0,1-6.84-7.76,26.61,26.61,0,0,1-2.49-11.93,26.61,26.61,0,0,1,2.49-11.93,18.66,18.66,0,0,1,6.84-7.76A18.29,18.29,0,0,1,319.15,63a19.7,19.7,0,0,1,6.21,1,17.22,17.22,0,0,1,5.25,2.8,16.29,16.29,0,0,1,3.93,4.48A17.5,17.5,0,0,1,336.71,77.2Z"/><path d="M349.58,87.51V107.2h-5V63.56h5v16H350a9.25,9.25,0,0,1,3.47-4A11.08,11.08,0,0,1,359.63,74a12.3,12.3,0,0,1,5.86,1.34,9.1,9.1,0,0,1,3.91,4.06,15.31,15.31,0,0,1,1.4,7v20.8h-5V86.74a8.49,8.49,0,0,0-2-6,7.29,7.29,0,0,0-5.58-2.14,9.3,9.3,0,0,0-4.42,1,7.55,7.55,0,0,0-3.06,3.05A9.81,9.81,0,0,0,349.58,87.51Z"/><path d="M389.63,108a13.15,13.15,0,0,1-5.64-1.18,9.27,9.27,0,0,1-5.52-8.87,8.43,8.43,0,0,1,1.11-4.57,7.79,7.79,0,0,1,3-2.76,15.49,15.49,0,0,1,4.1-1.5c1.5-.34,3-.6,4.53-.8,2-.26,3.6-.45,4.84-.59a7.4,7.4,0,0,0,2.73-.69,1.8,1.8,0,0,0,.86-1.71v-.17a6.72,6.72,0,0,0-1.71-4.9,7,7,0,0,0-5.19-1.74,9,9,0,0,0-5.64,1.57,9.26,9.26,0,0,0-2.88,3.37l-4.77-1.71a11.46,11.46,0,0,1,3.42-4.65,12.83,12.83,0,0,1,4.68-2.35,20,20,0,0,1,5-.67,20.56,20.56,0,0,1,3.63.38,11.91,11.91,0,0,1,4,1.52,8.93,8.93,0,0,1,3.2,3.47,12.83,12.83,0,0,1,1.28,6.22V107.2h-5v-4.43h-.25a8.58,8.58,0,0,1-1.71,2.27,9.79,9.79,0,0,1-3.17,2.07A12.19,12.19,0,0,1,389.63,108Zm.77-4.51a9.94,9.94,0,0,0,5-1.18,8,8,0,0,0,3.11-3,7.82,7.82,0,0,0,1.05-3.9v-4.6a3,3,0,0,1-1.39.69,20.66,20.66,0,0,1-2.47.53c-.93.15-1.83.28-2.71.39l-2.12.26a19.92,19.92,0,0,0-3.65.82,6.38,6.38,0,0,0-2.73,1.69,4.27,4.27,0,0,0-1,3,4.49,4.49,0,0,0,1.95,4A8.65,8.65,0,0,0,390.4,103.45Z"/><path d="M413.84,107.2V74.47h4.86v4.94H419a7.79,7.79,0,0,1,3.24-3.94A9.5,9.5,0,0,1,427.56,74l1.38,0c.56,0,1,0,1.26.06v5.12c-.17,0-.56-.11-1.16-.21a12.93,12.93,0,0,0-1.91-.13,8.94,8.94,0,0,0-4.25,1,7.63,7.63,0,0,0-2.94,2.72,7.35,7.35,0,0,0-1.07,4V107.2Z"/><path d="M438.72,69a3.52,3.52,0,0,1-2.52-1,3.26,3.26,0,0,1,0-4.81,3.51,3.51,0,0,1,2.52-1,3.55,3.55,0,0,1,2.53,1,3.28,3.28,0,0,1,0,4.81A3.56,3.56,0,0,1,438.72,69Zm-2.55,38.18V74.47h5V107.2Z"/><path d="M464.63,74.47v4.26h-17V74.47Zm-12-7.84h5V97.82a6.39,6.39,0,0,0,.63,3.19,3.07,3.07,0,0,0,1.62,1.4,6.1,6.1,0,0,0,2.1.36,8.24,8.24,0,0,0,1.36-.1l.86-.16,1,4.52a11.73,11.73,0,0,1-1.43.39,10.69,10.69,0,0,1-2.32.2,10.09,10.09,0,0,1-4.17-.91,8.17,8.17,0,0,1-3.36-2.79,8,8,0,0,1-1.33-4.73Z"/><path d="M475.46,119.38a11.11,11.11,0,0,1-2.28-.2,6,6,0,0,1-1.39-.39l1.28-4.43a7.43,7.43,0,0,0,4.58,0c1.22-.49,2.28-1.95,3.18-4.4l.93-2.55-12.1-32.9h5.46l9,26.08h.34l9-26.08,5.5.08L485.09,112a14.09,14.09,0,0,1-2.33,4.14,8.86,8.86,0,0,1-3.2,2.46A10,10,0,0,1,475.46,119.38Z"/></g></g></svg>